<svg width="16" height="16" viewBox="0 0 16 16" fill="none" xmlns="http://www.w3.org/2000/svg">
<g id="cottage">
<mask id="mask0_9754_5752" style="mask-type:alpha" maskUnits="userSpaceOnUse" x="0" y="0" width="16" height="16">
<rect id="Bounding box" width="16" height="16" fill="#D9D9D9"/>
</mask>
<g mask="url(#mask0_9754_5752)">
<path id="cottage_2" d="M2.66662 12.667V7.75033L1.99996 8.26699C1.8444 8.3781 1.67773 8.42255 1.49996 8.40033C1.32218 8.3781 1.17773 8.28921 1.06662 8.13366C0.955512 7.9781 0.911068 7.81144 0.93329 7.63366C0.955512 7.45588 1.03885 7.31144 1.18329 7.20033L2.66662 6.06699V4.66699C2.66662 4.4781 2.73051 4.31977 2.85829 4.19199C2.98607 4.06421 3.1444 4.00033 3.33329 4.00033C3.52218 4.00033 3.68051 4.06421 3.80829 4.19199C3.93607 4.31977 3.99996 4.4781 3.99996 4.66699V5.05033L7.18329 2.61699C7.30551 2.5281 7.43607 2.46144 7.57496 2.41699C7.71385 2.37255 7.85551 2.35033 7.99996 2.35033C8.1444 2.35033 8.28607 2.37255 8.42496 2.41699C8.56385 2.46144 8.6944 2.5281 8.81662 2.61699L14.8166 7.20033C14.9611 7.31144 15.0444 7.45588 15.0666 7.63366C15.0888 7.81144 15.0444 7.9781 14.9333 8.13366C14.8222 8.2781 14.6777 8.36144 14.5 8.38366C14.3222 8.40588 14.1611 8.36144 14.0166 8.25033L13.3333 7.75033V12.667C13.3333 13.0337 13.2027 13.3475 12.9416 13.6087C12.6805 13.8698 12.3666 14.0003 12 14.0003H8.99996C8.91107 14.0003 8.83329 13.967 8.76662 13.9003C8.69996 13.8337 8.66662 13.7559 8.66662 13.667V10.667C8.66662 10.4781 8.60273 10.3198 8.47496 10.192C8.34718 10.0642 8.18885 10.0003 7.99996 10.0003C7.81107 10.0003 7.65273 10.0642 7.52496 10.192C7.39718 10.3198 7.33329 10.4781 7.33329 10.667V13.667C7.33329 13.7559 7.29996 13.8337 7.23329 13.9003C7.16662 13.967 7.08885 14.0003 6.99996 14.0003H3.99996C3.63329 14.0003 3.3194 13.8698 3.05829 13.6087C2.79718 13.3475 2.66662 13.0337 2.66662 12.667ZM3.53329 3.33366C3.27773 3.33366 3.08051 3.2281 2.94162 3.01699C2.80273 2.80588 2.7944 2.58921 2.91662 2.36699C3.10551 2.04477 3.35273 1.79199 3.65829 1.60866C3.96385 1.42533 4.29996 1.33366 4.66662 1.33366C4.78885 1.33366 4.90551 1.3031 5.01662 1.24199C5.12773 1.18088 5.21107 1.09477 5.26662 0.983659C5.32218 0.883659 5.39718 0.805881 5.49162 0.750326C5.58607 0.69477 5.6944 0.666992 5.81662 0.666992C6.07218 0.666992 6.26662 0.772548 6.39996 0.983659C6.53329 1.19477 6.53885 1.41144 6.41662 1.63366C6.22773 1.95588 5.98051 2.20866 5.67496 2.39199C5.3694 2.57533 5.03329 2.66699 4.66662 2.66699C4.5444 2.66699 4.42773 2.69477 4.31662 2.75033C4.20551 2.80588 4.12218 2.89477 4.06662 3.01699C4.01107 3.11699 3.93885 3.19477 3.84996 3.25033C3.76107 3.30588 3.65551 3.33366 3.53329 3.33366Z" fill="#011111" fill-opacity="0.6"/>
</g>
</g>
</svg>
