<svg width="12" height="12" viewBox="0 0 12 12" fill="none" xmlns="http://www.w3.org/2000/svg">
<path d="M5.00033 7.66634V8.33301C5.00033 8.61079 5.09755 8.8469 5.29199 9.04134C5.48644 9.23579 5.72255 9.33301 6.00033 9.33301C6.2781 9.33301 6.51421 9.23579 6.70866 9.04134C6.9031 8.8469 7.00033 8.61079 7.00033 8.33301V7.66634H7.66699C7.94477 7.66634 8.18088 7.56912 8.37533 7.37467C8.56977 7.18023 8.66699 6.94412 8.66699 6.66634C8.66699 6.38856 8.56977 6.15245 8.37533 5.95801C8.18088 5.76356 7.94477 5.66634 7.66699 5.66634H7.00033V4.99967C7.00033 4.7219 6.9031 4.48579 6.70866 4.29134C6.51421 4.0969 6.2781 3.99967 6.00033 3.99967C5.72255 3.99967 5.48644 4.0969 5.29199 4.29134C5.09755 4.48579 5.00033 4.7219 5.00033 4.99967V5.66634H4.33366C4.05588 5.66634 3.81977 5.76356 3.62533 5.95801C3.43088 6.15245 3.33366 6.38856 3.33366 6.66634C3.33366 6.94412 3.43088 7.18023 3.62533 7.37467C3.81977 7.56912 4.05588 7.66634 4.33366 7.66634H5.00033ZM2.00033 11.9997C1.63366 11.9997 1.31977 11.8691 1.05866 11.608C0.797548 11.3469 0.666992 11.033 0.666992 10.6663V4.66634C0.666992 4.45523 0.714214 4.25523 0.808659 4.06634C0.903103 3.87745 1.03366 3.7219 1.20033 3.59967L5.20033 0.599674C5.43366 0.421897 5.70033 0.333008 6.00033 0.333008C6.30033 0.333008 6.56699 0.421897 6.80033 0.599674L10.8003 3.59967C10.967 3.7219 11.0975 3.87745 11.192 4.06634C11.2864 4.25523 11.3337 4.45523 11.3337 4.66634V10.6663C11.3337 11.033 11.2031 11.3469 10.942 11.608C10.6809 11.8691 10.367 11.9997 10.0003 11.9997H2.00033Z" fill="#011111" fill-opacity="0.6"/>
</svg>
