<svg width="15" height="19" viewBox="0 0 15 19" fill="none" xmlns="http://www.w3.org/2000/svg">
<path d="M7.67169 12C6.85741 12 6.16526 11.7083 5.59526 11.125C5.02526 10.5417 4.74026 9.83333 4.74026 9V3C4.74026 2.16667 5.02526 1.45833 5.59526 0.875C6.16526 0.291667 6.85741 0 7.67169 0C8.48598 0 9.17812 0.291667 9.74812 0.875C10.3181 1.45833 10.6031 2.16667 10.6031 3V9C10.6031 9.83333 10.3181 10.5417 9.74812 11.125C9.17812 11.7083 8.48598 12 7.67169 12ZM6.69455 18V15.925C5.19626 15.7083 3.91376 15.0583 2.84705 13.975C1.78033 12.8917 1.13298 11.575 0.904977 10.025C0.872406 9.74167 0.945692 9.5 1.12483 9.3C1.30398 9.1 1.53198 9 1.80883 9C2.08569 9 2.31776 9.09583 2.50505 9.2875C2.69233 9.47917 2.81855 9.71667 2.88369 10C3.11169 11.1667 3.67762 12.125 4.58148 12.875C5.48533 13.625 6.51541 14 7.67169 14C8.84426 14 9.87841 13.6208 10.7741 12.8625C11.6698 12.1042 12.2317 11.15 12.4597 10C12.5248 9.71667 12.651 9.47917 12.8383 9.2875C13.0256 9.09583 13.2577 9 13.5345 9C13.8114 9 14.0394 9.1 14.2185 9.3C14.3977 9.5 14.471 9.74167 14.4384 10.025C14.2104 11.5417 13.5671 12.85 12.5085 13.95C11.45 15.05 10.1634 15.7083 8.64883 15.925V18C8.64883 18.2833 8.55519 18.5208 8.36791 18.7125C8.18062 18.9042 7.94855 19 7.67169 19C7.39483 19 7.16276 18.9042 6.97548 18.7125C6.78819 18.5208 6.69455 18.2833 6.69455 18Z" fill="#005760"/>
</svg>
