<svg width="25" height="25" viewBox="0 0 25 25" fill="none" xmlns="http://www.w3.org/2000/svg">
<g id="search">
<mask id="mask0_9573_5393" style="mask-type:alpha" maskUnits="userSpaceOnUse" x="0" y="0" width="25" height="25">
<rect id="Bounding box" x="0.714844" y="0.794922" width="24" height="24" fill="#D9D9D9"/>
</mask>
<g mask="url(#mask0_9573_5393)">
<path id="search_2" d="M10.2148 16.7949C8.39818 16.7949 6.86068 16.1658 5.60234 14.9074C4.34401 13.6491 3.71484 12.1116 3.71484 10.2949C3.71484 8.47826 4.34401 6.94076 5.60234 5.68242C6.86068 4.42409 8.39818 3.79492 10.2148 3.79492C12.0315 3.79492 13.569 4.42409 14.8273 5.68242C16.0857 6.94076 16.7148 8.47826 16.7148 10.2949C16.7148 11.0283 16.5982 11.7199 16.3648 12.3699C16.1315 13.0199 15.8148 13.5949 15.4148 14.0949L21.0148 19.6949C21.1982 19.8783 21.2898 20.1116 21.2898 20.3949C21.2898 20.6783 21.1982 20.9116 21.0148 21.0949C20.8315 21.2783 20.5982 21.3699 20.3148 21.3699C20.0315 21.3699 19.7982 21.2783 19.6148 21.0949L14.0148 15.4949C13.5148 15.8949 12.9398 16.2116 12.2898 16.4449C11.6398 16.6783 10.9482 16.7949 10.2148 16.7949ZM10.2148 14.7949C11.4648 14.7949 12.5273 14.3574 13.4023 13.4824C14.2773 12.6074 14.7148 11.5449 14.7148 10.2949C14.7148 9.04492 14.2773 7.98242 13.4023 7.10742C12.5273 6.23242 11.4648 5.79492 10.2148 5.79492C8.96484 5.79492 7.90234 6.23242 7.02734 7.10742C6.15234 7.98242 5.71484 9.04492 5.71484 10.2949C5.71484 11.5449 6.15234 12.6074 7.02734 13.4824C7.90234 14.3574 8.96484 14.7949 10.2148 14.7949Z" fill="#011111" fill-opacity="0.2"/>
</g>
</g>
</svg>
