<svg width="16" height="16" viewBox="0 0 16 16" fill="none" xmlns="http://www.w3.org/2000/svg">
<path d="M3.12817 12.7597H7.87192V12.5129C7.87192 12.3004 7.81296 12.1035 7.69504 11.9222C7.57726 11.7409 7.41289 11.6002 7.20192 11.5002C6.92942 11.3804 6.65351 11.2907 6.37421 11.231C6.0949 11.1711 5.80351 11.1412 5.50004 11.1412C5.19657 11.1412 4.90518 11.1711 4.62587 11.231C4.34657 11.2907 4.07067 11.3804 3.79817 11.5002C3.58719 11.6002 3.42282 11.7409 3.30504 11.9222C3.18712 12.1035 3.12817 12.3004 3.12817 12.5129V12.7597ZM10.1636 11.4937H12.5032C12.6468 11.4937 12.7655 11.4468 12.8592 11.3531C12.9531 11.2593 13 11.1407 13 10.9972C13 10.8539 12.9531 10.7352 12.8592 10.6412C12.7655 10.5472 12.6468 10.5002 12.5032 10.5002H10.1636C10.02 10.5002 9.90129 10.547 9.80754 10.6408C9.71365 10.7345 9.66671 10.8531 9.66671 10.9966C9.66671 11.14 9.71365 11.2586 9.80754 11.3527C9.90129 11.4467 10.02 11.4937 10.1636 11.4937ZM5.49817 10.5002C5.80928 10.5002 6.07435 10.3913 6.29337 10.1735C6.5124 9.95572 6.62192 9.69127 6.62192 9.38016C6.62192 9.06919 6.51303 8.80419 6.29525 8.58516C6.07747 8.36613 5.81303 8.25662 5.50192 8.25662C5.1908 8.25662 4.92574 8.36551 4.70671 8.58329C4.48768 8.80107 4.37817 9.06544 4.37817 9.37641C4.37817 9.68752 4.48705 9.95259 4.70483 10.1716C4.92261 10.3906 5.18705 10.5002 5.49817 10.5002ZM10.1636 9.25016H12.5032C12.6468 9.25016 12.7655 9.20329 12.8592 9.10954C12.9531 9.01579 13 8.89718 13 8.7537C13 8.61037 12.9531 8.49169 12.8592 8.39766C12.7655 8.30363 12.6468 8.25662 12.5032 8.25662H10.1636C10.02 8.25662 9.90129 8.3035 9.80754 8.39725C9.71365 8.491 9.66671 8.60961 9.66671 8.75308C9.66671 8.89641 9.71365 9.01509 9.80754 9.10912C9.90129 9.20315 10.02 9.25016 10.1636 9.25016ZM1.58983 15.9168C1.16886 15.9168 0.812541 15.771 0.520874 15.4793C0.229207 15.1877 0.083374 14.8313 0.083374 14.4104V5.75662C0.083374 5.33565 0.229207 4.97933 0.520874 4.68766C0.812541 4.396 1.16886 4.25016 1.58983 4.25016H5.91671V1.3335C5.91671 0.989746 6.03914 0.69551 6.284 0.450788C6.52872 0.205927 6.82296 0.0834961 7.16671 0.0834961H8.83337C9.17712 0.0834961 9.47136 0.205927 9.71608 0.450788C9.96094 0.69551 10.0834 0.989746 10.0834 1.3335V4.25016H14.4102C14.8312 4.25016 15.1875 4.396 15.4792 4.68766C15.7709 4.97933 15.9167 5.33565 15.9167 5.75662V14.4104C15.9167 14.8313 15.7709 15.1877 15.4792 15.4793C15.1875 15.771 14.8312 15.9168 14.4102 15.9168H1.58983ZM1.58983 14.6668H14.4102C14.4851 14.6668 14.5466 14.6428 14.5946 14.5947C14.6427 14.5467 14.6667 14.4852 14.6667 14.4104V5.75662C14.6667 5.68176 14.6427 5.6203 14.5946 5.57225C14.5466 5.52419 14.4851 5.50016 14.4102 5.50016H10.0834V5.82079C10.0834 6.16148 9.96025 6.45496 9.714 6.7012C9.46775 6.94745 9.17421 7.07058 8.83337 7.07058H7.16671C6.82587 7.07058 6.53233 6.94745 6.28608 6.7012C6.03983 6.45496 5.91671 6.16148 5.91671 5.82079V5.50016H1.58983C1.51497 5.50016 1.45351 5.52419 1.40546 5.57225C1.3574 5.6203 1.33337 5.68176 1.33337 5.75662V14.4104C1.33337 14.4852 1.3574 14.5467 1.40546 14.5947C1.45351 14.6428 1.51497 14.6668 1.58983 14.6668ZM7.16671 5.82079H8.83337V1.3335H7.16671V5.82079Z" fill="#011111" fill-opacity="0.4"/>
</svg>
