<svg width="16" height="16" viewBox="0 0 16 16" fill="none" xmlns="http://www.w3.org/2000/svg">
<path d="M5.1841 15.5752C3.85744 15.5752 2.73207 15.1132 1.808 14.1891C0.883917 13.265 0.421875 12.1397 0.421875 10.813C0.421875 10.1781 0.5425 9.57094 0.78375 8.99168C1.02499 8.41241 1.371 7.89709 1.82179 7.44572L7.44181 1.82072C7.89295 1.37325 8.40801 1.02889 8.98698 0.787656C9.56595 0.546406 10.1733 0.425781 10.8091 0.425781C12.1358 0.425781 13.2611 0.887823 14.1852 1.81191C15.1093 2.73598 15.5713 3.86134 15.5713 5.18801C15.5713 5.82297 15.4507 6.43008 15.2095 7.00934C14.9682 7.58861 14.6239 8.10393 14.1764 8.5553L8.5514 14.1753C8.10026 14.6261 7.5852 14.9721 7.00623 15.2134C6.42726 15.4546 5.81988 15.5752 5.1841 15.5752ZM10.8666 9.85014L13.1776 7.55568C13.4866 7.24293 13.7262 6.88222 13.8965 6.47355C14.0668 6.0649 14.1519 5.6362 14.1519 5.18745C14.1519 4.25606 13.8277 3.46616 13.1794 2.81776C12.531 2.16937 11.7411 1.84518 10.8097 1.84518C10.3609 1.84518 9.93222 1.93032 9.52356 2.10059C9.1149 2.27089 8.75419 2.51052 8.44144 2.81951L6.14698 5.13049L10.8666 9.85014ZM5.1841 14.1509C5.61662 14.1509 6.04117 14.0666 6.45777 13.8979C6.87435 13.7293 7.23902 13.4905 7.55177 13.1815L9.84623 10.8656L5.13156 6.15089L2.8156 8.44534C2.50662 8.75809 2.26781 9.11929 2.09919 9.52893C1.93056 9.93858 1.84625 10.3666 1.84625 10.813C1.84625 11.7448 2.16962 12.534 2.81635 13.1808C3.46309 13.8275 4.25234 14.1509 5.1841 14.1509Z" fill="#005760"/>
</svg>
