<svg width="20" height="20" viewBox="0 0 20 20" fill="none" xmlns="http://www.w3.org/2000/svg">
<mask id="mask0_10048_6494" style="mask-type:alpha" maskUnits="userSpaceOnUse" x="0" y="0" width="20" height="20">
<rect width="20" height="20" fill="#D9D9D9"/>
</mask>
<g mask="url(#mask0_10048_6494)">
<path d="M4.16671 16.6667H15.8334C16.0695 16.6667 16.2674 16.7465 16.4271 16.9063C16.5868 17.066 16.6667 17.2639 16.6667 17.5C16.6667 17.7361 16.5868 17.934 16.4271 18.0938C16.2674 18.2535 16.0695 18.3333 15.8334 18.3333H4.16671C3.9306 18.3333 3.73268 18.2535 3.57296 18.0938C3.41324 17.934 3.33337 17.7361 3.33337 17.5C3.33337 17.2639 3.41324 17.066 3.57296 16.9063C3.73268 16.7465 3.9306 16.6667 4.16671 16.6667ZM8.33337 15C8.09726 15 7.89935 14.9201 7.73962 14.7604C7.5799 14.6007 7.50004 14.4028 7.50004 14.1667V9.16667H5.87504C5.52782 9.16667 5.27782 9.01042 5.12504 8.69792C4.97226 8.38542 5.00004 8.09028 5.20837 7.8125L9.33337 2.52083C9.41671 2.40972 9.5174 2.32639 9.63546 2.27083C9.75351 2.21528 9.87504 2.1875 10 2.1875C10.125 2.1875 10.2466 2.21528 10.3646 2.27083C10.4827 2.32639 10.5834 2.40972 10.6667 2.52083L14.7917 7.8125C15 8.09028 15.0278 8.38542 14.875 8.69792C14.7223 9.01042 14.4723 9.16667 14.125 9.16667H12.5V14.1667C12.5 14.4028 12.4202 14.6007 12.2605 14.7604C12.1007 14.9201 11.9028 15 11.6667 15H8.33337Z" fill="white"/>
</g>
</svg>
