<svg width="17" height="19" viewBox="0 0 17 19" fill="none" xmlns="http://www.w3.org/2000/svg">
<path d="M11.8012 16.4327L12.9039 15.3221L11.226 13.6442L10.1154 14.7469C9.87288 14.9894 9.75163 15.2703 9.75163 15.5898C9.75163 15.9092 9.87288 16.1902 10.1154 16.4327C10.3579 16.6752 10.6388 16.7965 10.9583 16.7965C11.2777 16.7965 11.5587 16.6752 11.8012 16.4327ZM13.7739 14.4519L14.8845 13.3494C15.127 13.1069 15.247 12.8259 15.2443 12.5065C15.2417 12.187 15.1191 11.906 14.8766 11.6635C14.6341 11.4263 14.3545 11.3064 14.0377 11.3038C13.7209 11.301 13.4412 11.4209 13.1987 11.6635L12.096 12.774L13.7739 14.4519ZM12.6843 17.3238C12.2024 17.8056 11.6257 18.0451 10.9543 18.0425C10.2828 18.0399 9.70614 17.8003 9.22433 17.3238C8.74781 16.8419 8.50822 16.2653 8.50558 15.5938C8.50295 14.9222 8.74253 14.3456 9.22433 13.8638L12.3156 10.7725C12.7921 10.296 13.3688 10.0577 14.0456 10.0577C14.7224 10.0577 15.2991 10.296 15.7756 10.7725C16.2574 11.2543 16.4983 11.831 16.4983 12.5025C16.4983 13.1739 16.2574 13.7505 15.7756 14.2323L12.6843 17.3238ZM1.92308 16.0833C1.50753 16.0833 1.15253 15.9362 0.858084 15.6419C0.563779 15.3474 0.416626 14.9924 0.416626 14.5769V3.42313C0.416626 3.00757 0.563779 2.65257 0.858084 2.35813C1.15253 2.06382 1.50753 1.91667 1.92308 1.91667H5.63142C5.68378 1.45403 5.88572 1.06062 6.23725 0.736458C6.58864 0.412152 7.00954 0.25 7.49996 0.25C7.99565 0.25 8.41926 0.412152 8.77079 0.736458C9.12232 1.06062 9.32156 1.45403 9.3685 1.91667H13.0768C13.4924 1.91667 13.8474 2.06382 14.1418 2.35813C14.4361 2.65257 14.5833 3.00757 14.5833 3.42313V8.13458C14.375 8.09181 14.1666 8.07313 13.9583 8.07854C13.75 8.08382 13.5416 8.10195 13.3333 8.13292V3.42313C13.3333 3.34826 13.3093 3.28681 13.2612 3.23875C13.2132 3.1907 13.1517 3.16667 13.0768 3.16667H1.92308C1.84822 3.16667 1.78676 3.1907 1.73871 3.23875C1.69065 3.28681 1.66663 3.34826 1.66663 3.42313V14.5769C1.66663 14.6517 1.69065 14.7132 1.73871 14.7613C1.78676 14.8093 1.84822 14.8333 1.92308 14.8333H6.59288C6.55663 15.0417 6.53579 15.25 6.53038 15.4583C6.5251 15.6667 6.54378 15.875 6.58642 16.0833H1.92308ZM7.49996 2.62187C7.68051 2.62187 7.82982 2.56285 7.94788 2.44479C8.06593 2.32674 8.12496 2.17743 8.12496 1.99687C8.12496 1.81632 8.06593 1.66701 7.94788 1.54896C7.82982 1.4309 7.68051 1.37187 7.49996 1.37187C7.3194 1.37187 7.1701 1.4309 7.05204 1.54896C6.93399 1.66701 6.87496 1.81632 6.87496 1.99687C6.87496 2.17743 6.93399 2.32674 7.05204 2.44479C7.1701 2.56285 7.3194 2.62187 7.49996 2.62187ZM3.54163 6.38771V5.13792H11.4583V6.38771H3.54163ZM3.54163 9.625V8.375H11.4583V8.89896C11.3632 8.96313 11.2729 9.03236 11.1875 9.10667C11.102 9.18083 11.0118 9.26549 10.9166 9.36063L10.6523 9.625H3.54163ZM3.54163 12.8621V11.6123H8.66496L8.03683 12.2404C7.931 12.3461 7.83163 12.4497 7.73871 12.5513C7.64579 12.6528 7.55927 12.7564 7.47913 12.8621H3.54163Z" fill="#011111" fill-opacity="0.4"/>
</svg>
